<?xml version="1.0" ?><svg id="laugh" viewBox="0 0 64 64" xmlns="http://www.w3.org/2000/svg"><path d="M5.2861,17.8184A1,1,0,1,0,6.7,16.4043l-.767-.7671L6.7,14.87a1,1,0,0,0-1.4141-1.414l-.7668.7669-.7669-.7669a1,1,0,1,0-1.414,1.414l.7669.7671-.7669.7671a1,1,0,1,0,1.414,1.4141l.7669-.767Z"/><path d="M59,34c0-1.64-1.0942-3.1362-3.2539-4.4521a23.995,23.995,0,0,0-47.4922,0C6.0942,30.8638,5,32.36,5,34c0,1.7471,1.2407,3.3286,3.689,4.7041a23.9983,23.9983,0,0,0,46.622,0C57.7593,37.3286,59,35.7471,59,34Zm-5.5366,3.8213a21.9977,21.9977,0,0,1-42.9268,0,1.0009,1.0009,0,0,0-.5112-.667C8.0742,36.13,7,35.01,7,34c0-.9434.9482-1.9961,2.67-2.9644a1.0011,1.0011,0,0,0,.5025-.7495,21.9945,21.9945,0,0,1,43.6542,0,1.0011,1.0011,0,0,0,.5025.7495C56.0518,32.0039,57,33.0566,57,34c0,1.01-1.0742,2.13-3.0254,3.1543A1.0009,1.0009,0,0,0,53.4634,37.8213Z"/><path d="M56,53a3,3,0,1,0,3,3A3.0033,3.0033,0,0,0,56,53Zm0,4a1,1,0,1,1,1-1A1.0013,1.0013,0,0,1,56,57Z"/><circle cx="59" cy="45" r="1"/><path d="M15.6284,11.9287a1,1,0,0,0,1.3-.5571,5.2919,5.2919,0,0,1,5.8789-3.39A1,1,0,0,0,23.1963,6.02a7.2429,7.2429,0,0,0-8.125,4.6089A1.0006,1.0006,0,0,0,15.6284,11.9287Z"/><circle cx="39" cy="22" r="2"/><path d="M51.2026,31.1074C46.1113,28.4585,39.2915,27,32,27s-14.1113,1.4585-19.2026,4.1074a1,1,0,0,0-.5264,1.044,19.9752,19.9752,0,0,0,39.458,0A1,1,0,0,0,51.2026,31.1074ZM24.12,45.191a3.9568,3.9568,0,0,1,7.0787-1.566,1.0369,1.0369,0,0,0,1.6036,0,3.9574,3.9574,0,0,1,7.0794,1.5657,18.0695,18.0695,0,0,1-15.7617,0Z"/><circle cx="25" cy="22" r="2"/><path d="M37.1934,16.981c.1723-.0332,4.2846-.7886,5.9121,2.4663a1,1,0,1,0,1.789-.8946c-1.852-3.7041-6.102-3.93-8.0908-3.5332a1,1,0,0,0,.39,1.9615Z"/></svg>